<svg width="212" height="213" viewBox="0 0 212 213" fill="none" xmlns="http://www.w3.org/2000/svg">
<path d="M38.3484 148.019C-14.0993 105.226 5.72021 63.8324 1.12821 6.85411C0.915232 4.21148 3.17378 2.01139 5.77609 2.51868C37.0484 8.61482 89.8504 33.0808 101.179 93.0187C106.295 120.086 103.698 157.189 103.649 203.177C103.647 204.504 101.945 205.058 101.149 203.995C91.6123 191.246 88.2818 188.762 38.3484 148.019Z" fill="url(#paint0_linear_1004_1013)"/>
<path d="M35.1556 143.51C-9.80537 106.633 5.19938 54.9422 3.38991 8.80403C3.28847 6.21731 5.52188 4.12851 8.05834 4.64666C37.3735 10.6351 88.9537 35.9257 99.4363 91.3856C104.156 116.355 103.817 159.475 103.887 202.427C103.889 203.786 102.102 204.342 101.3 203.246C91.0665 189.261 78.0632 178.704 35.1556 143.51Z" fill="url(#paint1_linear_1004_1013)"/>
<g opacity="0.6">
<path d="M103.905 203.305L103.78 154.199C103.763 147.626 102.346 141.052 99.1315 135.316C61.6241 68.3792 3.40404 82.8227 3.40404 82.8227C3.40404 82.8227 4.24521 119.629 34.4906 143.366C51.7843 156.939 56.9167 162.695 74.2067 176.273C87.9859 187.093 96.9379 198.3 101.134 204.159C101.948 205.295 103.909 204.701 103.905 203.305Z" fill="url(#paint2_linear_1004_1013)"/>
<path d="M103.905 203.305L103.78 154.199C103.763 147.626 102.346 141.052 99.1315 135.316C61.6241 68.3792 3.40404 82.8227 3.40404 82.8227C3.40404 82.8227 4.24521 119.629 34.4906 143.366C51.7843 156.939 56.9167 162.695 74.2067 176.273C87.9859 187.093 96.9379 198.3 101.134 204.159C101.948 205.295 103.909 204.701 103.905 203.305Z" fill="url(#paint3_radial_1004_1013)"/>
</g>
<path d="M102.093 142.258C85.7669 107.031 50.1739 76.4904 9.58245 82.1417C8.90328 82.2273 8.18689 82.0447 7.52184 82.1481C8.18707 82.0456 8.90465 82.2313 9.584 82.1469C49.4425 77.5759 85.2409 107.989 99.8522 143.313C100.731 145.252 103.031 150.119 103.031 150.119L102.396 146.022C102.396 146.022 103.064 144.187 102.093 142.258Z" fill="url(#paint4_linear_1004_1013)"/>
<path d="M102.768 141.79C86.4421 106.563 50.8577 76.4865 10.2662 82.1378C9.58701 82.2235 8.87063 82.0409 8.20559 82.1442C8.87081 82.0418 9.58839 82.2274 10.2677 82.1431C50.9895 76.585 85.9161 107.522 100.527 142.845C101.406 144.784 103.707 149.651 103.707 149.651L103.071 145.554C103.071 145.554 103.739 143.719 102.768 141.79Z" fill="#3F3F3F"/>
<path d="M1.39453 6.85649C1.18302 4.21375 3.44164 2.01327 6.04395 2.52055C37.3163 8.61683 90.1183 33.0829 101.447 93.0206C106.554 120.036 104.725 158.594 104.713 204.557C104.713 205.91 102.96 206.442 102.192 205.328C101.715 204.636 101.253 203.971 100.8 203.326C98.7031 200.457 95.6309 196.543 91.5742 192.119C83.8866 184.317 70.7761 173.684 38.8799 148.275C-14.3523 105.87 5.95751 63.8711 1.39453 6.85649Z" fill="url(#paint5_radial_1004_1013)"/>
<path d="M172.532 147.153C223.783 107.677 208.232 66.4151 210.217 5.62012C210.283 3.58962 208.88 1.78417 206.848 1.80995C184.042 2.09936 118.626 32.8471 111.365 93.4667C107.933 122.127 106.722 157.621 107.83 203.663C107.86 204.914 109.405 205.469 110.211 204.513C121.691 190.887 123.373 185.018 172.532 147.153Z" fill="url(#paint6_radial_1004_1013)"/>
<path d="M172.532 147.153C223.783 107.677 208.232 66.4151 210.217 5.62012C210.283 3.58962 208.88 1.78417 206.848 1.80995C184.042 2.09936 118.626 32.8471 111.365 93.4667C107.933 122.127 106.722 157.621 107.83 203.663C107.86 204.914 109.405 205.469 110.211 204.513C121.691 190.887 123.373 185.018 172.532 147.153Z" fill="url(#paint7_radial_1004_1013)"/>
<path d="M176.975 141.967C221.936 105.089 206.931 53.3984 208.741 7.26019C208.842 4.67347 206.609 2.58468 204.073 3.10282C174.757 9.0913 123.177 34.3819 112.695 89.8417C107.975 114.811 108.314 157.931 108.244 200.883C108.241 202.242 110.029 202.798 110.831 201.702C121.064 187.717 134.068 177.16 176.975 141.967Z" fill="url(#paint8_linear_1004_1013)"/>
<path d="M108.231 202.229L108.358 152.656C108.375 146.082 109.792 139.509 113.006 133.773C150.514 66.8359 208.734 81.2794 208.734 81.2794C208.734 81.2794 207.587 118.928 177.342 142.665C160.048 156.238 156.261 159.158 138.847 173.764C124.988 185.389 115.276 197.277 110.876 203.094C110.056 204.178 108.228 203.588 108.231 202.229Z" fill="url(#paint9_linear_1004_1013)"/>
<path d="M108.231 202.229L108.358 152.656C108.375 146.082 109.792 139.509 113.006 133.773C150.514 66.8359 208.734 81.2794 208.734 81.2794C208.734 81.2794 207.587 118.928 177.342 142.665C160.048 156.238 156.261 159.158 138.847 173.764C124.988 185.389 115.276 197.277 110.876 203.094C110.056 204.178 108.228 203.588 108.231 202.229Z" fill="url(#paint10_radial_1004_1013)"/>
<path d="M110.049 140.714C126.376 105.487 161.969 74.9465 202.56 80.5978C203.239 80.6835 203.956 80.5009 204.621 80.6043C203.956 80.5018 203.238 80.6875 202.559 80.6031C162.7 76.0321 126.902 106.446 112.29 141.769C111.412 143.708 109.111 148.575 109.111 148.575L109.747 144.478C109.747 144.478 109.079 142.643 110.049 140.714Z" fill="url(#paint11_linear_1004_1013)"/>
<path d="M109.986 139.835C126.312 104.608 161.277 74.9406 201.869 80.5919C202.548 80.6775 203.264 80.495 203.929 80.5983C203.264 80.4958 202.546 80.6815 201.867 80.5972C161.145 75.039 126.219 105.976 111.608 141.3C110.729 143.238 108.428 148.106 108.428 148.106L108.427 144.433C108.427 144.433 109.015 141.764 109.986 139.835Z" fill="url(#paint12_linear_1004_1013)"/>
<g style="mix-blend-mode:multiply">
<mask id="mask0_1004_1013" style="mask-type:alpha" maskUnits="userSpaceOnUse" x="1" y="1" width="210" height="205">
<path d="M38.3484 148.019C-14.0993 105.225 5.72021 63.832 1.12821 6.85369C0.915232 4.21107 3.17378 2.01098 5.77609 2.51826C37.0484 8.61441 89.8504 33.0804 101.179 93.0183C106.295 120.085 103.698 157.188 103.649 203.176C103.647 204.504 101.945 205.058 101.149 203.994C91.6123 191.246 88.2818 188.761 38.3484 148.019Z" fill="url(#paint13_linear_1004_1013)"/>
<path d="M35.1556 143.51C-9.80537 106.633 5.19938 54.9418 3.38991 8.80362C3.28847 6.2169 5.52188 4.1281 8.05834 4.64625C37.3735 10.6347 88.9537 35.9253 99.4363 91.3852C104.156 116.355 103.817 159.474 103.887 202.427C103.889 203.785 102.102 204.342 101.3 203.245C91.0665 189.261 78.0632 178.703 35.1556 143.51Z" fill="url(#paint14_linear_1004_1013)"/>
<g opacity="0.6">
<path d="M103.905 203.305L103.78 154.199C103.763 147.626 102.346 141.052 99.1315 135.316C61.6241 68.3793 3.40404 82.8228 3.40404 82.8228C3.40404 82.8228 4.24521 119.629 34.4906 143.366C51.7843 156.939 56.9167 162.695 74.2067 176.273C87.9859 187.093 96.9379 198.3 101.134 204.16C101.948 205.295 103.909 204.701 103.905 203.305Z" fill="url(#paint15_linear_1004_1013)"/>
<path d="M103.905 203.305L103.78 154.199C103.763 147.626 102.346 141.052 99.1315 135.316C61.6241 68.3793 3.40404 82.8228 3.40404 82.8228C3.40404 82.8228 4.24521 119.629 34.4906 143.366C51.7843 156.939 56.9167 162.695 74.2067 176.273C87.9859 187.093 96.9379 198.3 101.134 204.16C101.948 205.295 103.909 204.701 103.905 203.305Z" fill="url(#paint16_radial_1004_1013)"/>
</g>
<path d="M102.093 142.258C85.7669 107.03 50.1739 76.4899 9.58245 82.1412C8.90328 82.2269 8.18689 82.0443 7.52184 82.1477C8.18707 82.0452 8.90465 82.2309 9.584 82.1465C49.4425 77.5755 85.2409 107.989 99.8522 143.313C100.731 145.252 103.031 150.119 103.031 150.119L102.396 146.022C102.396 146.022 103.064 144.187 102.093 142.258Z" fill="url(#paint17_linear_1004_1013)"/>
<path d="M102.768 141.79C86.4421 106.563 50.8577 76.4866 10.2662 82.1379C9.58701 82.2236 8.87063 82.041 8.20559 82.1443C8.87081 82.0418 9.58839 82.2275 10.2677 82.1432C50.9895 76.5851 85.9161 107.522 100.527 142.846C101.406 144.784 103.707 149.652 103.707 149.652L103.071 145.555C103.071 145.555 103.739 143.719 102.768 141.79Z" fill="#3F3F3F"/>
<path d="M1.39453 6.85657C1.18302 4.21382 3.44164 2.01334 6.04395 2.52063C37.3163 8.61691 90.1183 33.083 101.447 93.0206C106.554 120.036 104.725 158.594 104.713 204.557C104.713 205.91 102.96 206.442 102.192 205.328C101.715 204.636 101.253 203.971 100.8 203.326C98.7031 200.457 95.6309 196.543 91.5742 192.119C83.8866 184.317 70.7761 173.685 38.8799 148.276C-14.3523 105.87 5.95751 63.8711 1.39453 6.85657Z" fill="url(#paint18_radial_1004_1013)"/>
<path d="M172.532 147.153C223.783 107.677 208.232 66.4146 210.217 5.61969C210.283 3.5892 208.88 1.78375 206.848 1.80952C184.042 2.09894 118.626 32.8467 111.365 93.4663C107.933 122.127 106.722 157.621 107.83 203.663C107.86 204.914 109.405 205.469 110.211 204.512C121.691 190.886 123.373 185.017 172.532 147.153Z" fill="url(#paint19_radial_1004_1013)"/>
<path d="M172.532 147.153C223.783 107.677 208.232 66.4146 210.217 5.61969C210.283 3.5892 208.88 1.78375 206.848 1.80952C184.042 2.09894 118.626 32.8467 111.365 93.4663C107.933 122.127 106.722 157.621 107.83 203.663C107.86 204.914 109.405 205.469 110.211 204.512C121.691 190.886 123.373 185.017 172.532 147.153Z" fill="url(#paint20_radial_1004_1013)"/>
<path d="M176.975 141.966C221.936 105.089 206.931 53.3979 208.741 7.25976C208.842 4.67304 206.609 2.58425 204.073 3.10239C174.757 9.09087 123.177 34.3815 112.695 89.8413C107.975 114.811 108.314 157.93 108.244 200.883C108.241 202.241 110.029 202.798 110.831 201.701C121.064 187.717 134.068 177.159 176.975 141.966Z" fill="url(#paint21_linear_1004_1013)"/>
<path d="M108.231 202.229L108.358 152.655C108.375 146.082 109.792 139.508 113.006 133.772C150.514 66.8355 208.734 81.279 208.734 81.279C208.734 81.279 207.587 118.927 177.342 142.665C160.048 156.237 156.261 159.157 138.847 173.764C124.988 185.389 115.276 197.277 110.876 203.094C110.056 204.178 108.228 203.588 108.231 202.229Z" fill="url(#paint22_linear_1004_1013)"/>
<path d="M108.231 202.229L108.358 152.655C108.375 146.082 109.792 139.508 113.006 133.772C150.514 66.8355 208.734 81.279 208.734 81.279C208.734 81.279 207.587 118.927 177.342 142.665C160.048 156.237 156.261 159.157 138.847 173.764C124.988 185.389 115.276 197.277 110.876 203.094C110.056 204.178 108.228 203.588 108.231 202.229Z" fill="url(#paint23_radial_1004_1013)"/>
<path d="M110.049 140.714C126.376 105.487 161.969 74.9466 202.56 80.5979C203.239 80.6835 203.956 80.5009 204.621 80.6043C203.956 80.5018 203.238 80.6875 202.559 80.6031C162.7 76.0321 126.902 106.446 112.29 141.769C111.412 143.708 109.111 148.575 109.111 148.575L109.747 144.478C109.747 144.478 109.079 142.643 110.049 140.714Z" fill="url(#paint24_linear_1004_1013)"/>
<path d="M109.986 139.834C126.312 104.607 161.277 74.9402 201.869 80.5915C202.548 80.6771 203.264 80.4946 203.929 80.5979C203.264 80.4954 202.546 80.6811 201.867 80.5967C161.145 75.0386 126.219 105.975 111.608 141.299C110.729 143.238 108.428 148.105 108.428 148.105L108.427 144.432C108.427 144.432 109.015 141.763 109.986 139.834Z" fill="url(#paint25_linear_1004_1013)"/>
</mask>
<g mask="url(#mask0_1004_1013)">
<rect x="-10.0566" y="-2.98471" width="254.412" height="235.486" fill="url(#paint26_linear_1004_1013)"/>
</g>
</g>
<defs>
<linearGradient id="paint0_linear_1004_1013" x1="4.90232" y1="-3.14515" x2="107.396" y2="213.696" gradientUnits="userSpaceOnUse">
<stop stop-color="#F0F0F0"/>
<stop offset="1" stop-color="#686868"/>
</linearGradient>
<linearGradient id="paint1_linear_1004_1013" x1="-12.5275" y1="15.6931" x2="101.151" y2="186.637" gradientUnits="userSpaceOnUse">
<stop stop-color="#F2F2F2"/>
<stop offset="0.226398" stop-color="#D4D4D4"/>
<stop offset="0.730106" stop-color="#404040"/>
<stop offset="1" stop-color="#343434"/>
</linearGradient>
<linearGradient id="paint2_linear_1004_1013" x1="22.7934" y1="79.3825" x2="110.359" y2="192.331" gradientUnits="userSpaceOnUse">
<stop stop-color="#D0CFCF"/>
<stop offset="0.270601" stop-color="#D6D6D6"/>
<stop offset="1" stop-color="#888888"/>
</linearGradient>
<radialGradient id="paint3_radial_1004_1013" cx="0" cy="0" r="1" gradientTransform="matrix(9.62361 105.043 78.9858 -7.12514 19.7833 86.6298)" gradientUnits="userSpaceOnUse">
<stop stop-color="#DBDBDB"/>
<stop offset="1" stop-color="#CBCBCA" stop-opacity="0"/>
</radialGradient>
<linearGradient id="paint4_linear_1004_1013" x1="50.8265" y1="86.917" x2="56.6023" y2="151.931" gradientUnits="userSpaceOnUse">
<stop stop-color="#C8C8C8"/>
<stop offset="1" stop-color="#828282"/>
</linearGradient>
<radialGradient id="paint5_radial_1004_1013" cx="0" cy="0" r="1" gradientTransform="matrix(44.6808 102.999 -87.9872 37.5841 8.78207 69.582)" gradientUnits="userSpaceOnUse">
<stop stop-color="white"/>
<stop offset="1" stop-color="#A5A5A5" stop-opacity="0"/>
</radialGradient>
<radialGradient id="paint6_radial_1004_1013" cx="0" cy="0" r="1" gradientTransform="matrix(-50.8676 -26.6018 -119.367 224.745 210.349 53.2213)" gradientUnits="userSpaceOnUse">
<stop stop-color="#3A3A3A"/>
<stop offset="1" stop-color="white"/>
</radialGradient>
<radialGradient id="paint7_radial_1004_1013" cx="0" cy="0" r="1" gradientTransform="matrix(-26.8086 130.281 148.621 30.1126 138.859 35.4868)" gradientUnits="userSpaceOnUse">
<stop stop-color="white"/>
<stop offset="1" stop-color="#292929" stop-opacity="0.75"/>
</radialGradient>
<linearGradient id="paint8_linear_1004_1013" x1="224.658" y1="14.1492" x2="85.7439" y2="170.742" gradientUnits="userSpaceOnUse">
<stop stop-color="#696969"/>
<stop offset="0.269894" stop-color="#868685"/>
<stop offset="0.773602" stop-color="#BBB9B9"/>
</linearGradient>
<linearGradient id="paint9_linear_1004_1013" x1="189.344" y1="77.8391" x2="109.434" y2="191.401" gradientUnits="userSpaceOnUse">
<stop stop-color="#8A8888"/>
<stop offset="0.270601" stop-color="#666565"/>
<stop offset="1" stop-color="#424141"/>
</linearGradient>
<radialGradient id="paint10_radial_1004_1013" cx="0" cy="0" r="1" gradientTransform="matrix(-9.74714 104.18 -78.3367 -7.2166 192.478 85.9497)" gradientUnits="userSpaceOnUse">
<stop stop-color="#898887"/>
<stop offset="1" stop-color="#646060" stop-opacity="0"/>
</radialGradient>
<linearGradient id="paint11_linear_1004_1013" x1="108.604" y1="147.162" x2="157.786" y2="78.1622" gradientUnits="userSpaceOnUse">
<stop stop-color="#3B3B3B"/>
<stop offset="1" stop-color="#484848" stop-opacity="0"/>
</linearGradient>
<linearGradient id="paint12_linear_1004_1013" x1="109.285" y1="143.075" x2="157.114" y2="78.1638" gradientUnits="userSpaceOnUse">
<stop stop-color="#DEDEDE"/>
<stop offset="1" stop-color="#999999"/>
</linearGradient>
<linearGradient id="paint13_linear_1004_1013" x1="4.90232" y1="-3.14556" x2="107.396" y2="213.696" gradientUnits="userSpaceOnUse">
<stop stop-color="#F0F0F0"/>
<stop offset="1" stop-color="#686868"/>
</linearGradient>
<linearGradient id="paint14_linear_1004_1013" x1="-12.5275" y1="15.6927" x2="101.151" y2="186.637" gradientUnits="userSpaceOnUse">
<stop stop-color="#F2F2F2"/>
<stop offset="0.226398" stop-color="#D4D4D4"/>
<stop offset="0.730106" stop-color="#404040"/>
<stop offset="1" stop-color="#343434"/>
</linearGradient>
<linearGradient id="paint15_linear_1004_1013" x1="22.7934" y1="79.3825" x2="110.359" y2="192.331" gradientUnits="userSpaceOnUse">
<stop stop-color="#D0CFCF"/>
<stop offset="0.270601" stop-color="#D6D6D6"/>
<stop offset="1" stop-color="#888888"/>
</linearGradient>
<radialGradient id="paint16_radial_1004_1013" cx="0" cy="0" r="1" gradientTransform="matrix(9.62361 105.043 78.9858 -7.12514 19.7833 86.6298)" gradientUnits="userSpaceOnUse">
<stop stop-color="#DBDBDB"/>
<stop offset="1" stop-color="#CBCBCA" stop-opacity="0"/>
</radialGradient>
<linearGradient id="paint17_linear_1004_1013" x1="50.8265" y1="86.9166" x2="56.6023" y2="151.931" gradientUnits="userSpaceOnUse">
<stop stop-color="#C8C8C8"/>
<stop offset="1" stop-color="#828282"/>
</linearGradient>
<radialGradient id="paint18_radial_1004_1013" cx="0" cy="0" r="1" gradientTransform="matrix(44.6808 102.999 -87.9872 37.5841 8.78207 69.5821)" gradientUnits="userSpaceOnUse">
<stop stop-color="white"/>
<stop offset="1" stop-color="#A5A5A5" stop-opacity="0"/>
</radialGradient>
<radialGradient id="paint19_radial_1004_1013" cx="0" cy="0" r="1" gradientTransform="matrix(-50.8676 -26.6018 -119.367 224.745 210.349 53.2209)" gradientUnits="userSpaceOnUse">
<stop stop-color="#3A3A3A"/>
<stop offset="1" stop-color="white"/>
</radialGradient>
<radialGradient id="paint20_radial_1004_1013" cx="0" cy="0" r="1" gradientTransform="matrix(-26.8086 130.281 148.621 30.1126 138.859 35.4864)" gradientUnits="userSpaceOnUse">
<stop stop-color="white"/>
<stop offset="1" stop-color="#292929" stop-opacity="0.75"/>
</radialGradient>
<linearGradient id="paint21_linear_1004_1013" x1="224.658" y1="14.1488" x2="85.7439" y2="170.741" gradientUnits="userSpaceOnUse">
<stop stop-color="#696969"/>
<stop offset="0.269894" stop-color="#868685"/>
<stop offset="0.773602" stop-color="#BBB9B9"/>
</linearGradient>
<linearGradient id="paint22_linear_1004_1013" x1="189.344" y1="77.8387" x2="109.434" y2="191.4" gradientUnits="userSpaceOnUse">
<stop stop-color="#8A8888"/>
<stop offset="0.270601" stop-color="#666565"/>
<stop offset="1" stop-color="#424141"/>
</linearGradient>
<radialGradient id="paint23_radial_1004_1013" cx="0" cy="0" r="1" gradientTransform="matrix(-9.74714 104.18 -78.3367 -7.2166 192.478 85.9493)" gradientUnits="userSpaceOnUse">
<stop stop-color="#898887"/>
<stop offset="1" stop-color="#646060" stop-opacity="0"/>
</radialGradient>
<linearGradient id="paint24_linear_1004_1013" x1="108.604" y1="147.162" x2="157.786" y2="78.1622" gradientUnits="userSpaceOnUse">
<stop stop-color="#3B3B3B"/>
<stop offset="1" stop-color="#484848" stop-opacity="0"/>
</linearGradient>
<linearGradient id="paint25_linear_1004_1013" x1="109.285" y1="143.074" x2="157.114" y2="78.1633" gradientUnits="userSpaceOnUse">
<stop stop-color="#DEDEDE"/>
<stop offset="1" stop-color="#999999"/>
</linearGradient>
<linearGradient id="paint26_linear_1004_1013" x1="105.585" y1="192.628" x2="105.585" y2="210.588" gradientUnits="userSpaceOnUse">
<stop stop-color="#C2F6B8" stop-opacity="0"/>
<stop offset="1" stop-color="#8A9E72"/>
</linearGradient>
</defs>
</svg>
